<svg width="0" height="0" class="hidden">
  <symbol viewBox="-18 -18 577.332 577" xmlns="http://www.w3.org/2000/svg" id="create">
    <path d="M473.848 3.715a12.343 12.343 0 0 0-8.86-3.617 12.861 12.861 0 0 0-8.855 3.617L277.469 182.37l-.496.504-.25.25c-.246.375-.621.75-.871 1.121 0 .125-.125.125-.125.25-.25.371-.38.625-.625.996-.13.125-.13.254-.25.375-.125.375-.247.625-.375 1 0 .125-.125.125-.125.246l-31.817 95.946a12.292 12.292 0 0 0 3 12.726 12.563 12.563 0 0 0 8.852 3.617 14.864 14.864 0 0 0 3.996-.625l95.695-31.937c.121 0 .121 0 .246-.125a4.438 4.438 0 0 0 1.121-.496.441.441 0 0 0 .254-.13c.371-.245.871-.495 1.246-.75.371-.25.746-.624 1.121-.87.13-.121.25-.121.25-.25.125-.125.375-.25.504-.496L537.598 84.937a12.43 12.43 0 0 0 3.652-8.796 12.41 12.41 0 0 0-3.652-8.797zM291.695 214.312l35.309 35.31-52.902 17.589zm58.39 23.083l-46.163-46.16 161.066-161.07 46.16 46.16zm0 0"></path>
    <path d="M444.402 233.277c-6.882.02-12.457 5.594-12.476 12.477v233.184c-.059 20.644-16.778 37.363-37.43 37.43H62.383c-20.645-.067-37.371-16.786-37.43-37.43V146.815c.059-20.644 16.785-37.367 37.43-37.43h233.176c6.894 0 12.476-5.585 12.476-12.476s-5.582-12.476-12.476-12.476H62.383C27.933 84.449.016 112.37 0 146.816v332.121c.016 34.446 27.934 62.368 62.383 62.38h332.113c34.45-.012 62.371-27.934 62.383-62.38V245.754c-.02-6.883-5.594-12.457-12.477-12.477zm0 0"></path>
  </symbol>

  <symbol xmlns="http://www.w3.org/2000/svg" viewBox="0 0 512 512" id="plus">
    <path d="M156 256c0 11.046 8.954 20 20 20h60v60c0 11.046 8.954 20 20 20s20-8.954 20-20v-60h60c11.046 0 20-8.954 20-20s-8.954-20-20-20h-60v-60c0-11.046-8.954-20-20-20s-20 8.954-20 20v60h-60c-11.046 0-20 8.954-20 20zm4.406-194.2l25.869-10.716c10.204-4.228 15.051-15.927 10.823-26.132-4.228-10.205-15.926-15.054-26.132-10.823l-25.869 10.716c-10.204 4.228-15.051 15.927-10.823 26.132 4.214 10.171 15.894 15.061 26.132 10.823z"></path>
    <path d="M256 0c-11.046 0-20 8.954-20 20s8.954 20 20 20c119.378 0 216 96.608 216 216 0 119.378-96.608 216-216 216-119.378 0-216-96.608-216-216 0-11.046-8.954-20-20-20s-20 8.954-20 20c0 141.483 114.497 256 256 256 141.483 0 256-114.497 256-256C512 114.517 397.503 0 256 0zM93.366 113.165l19.799-19.799c7.811-7.811 7.811-20.475 0-28.285-7.811-7.81-20.475-7.811-28.285 0L65.081 84.88c-7.811 7.811-7.811 20.475 0 28.285 7.809 7.809 20.474 7.811 28.285 0zm-68.414 83.934c10.227 4.236 21.914-.642 26.132-10.823l10.716-25.87c4.228-10.205-.619-21.904-10.823-26.132-10.207-4.227-21.904.619-26.132 10.823l-10.716 25.869c-4.228 10.206.619 21.905 10.823 26.133z"></path>
  </symbol>

   <symbol viewBox="0 0 511.819 511.819" xmlns="http://www.w3.org/2000/svg" id="tasks">
    <path d="M199.351 278.782h56.876c12.733-.001 23.092-10.361 23.092-23.094v-39.817c0-12.734-10.359-23.094-23.094-23.094s-23.094 10.36-23.094 23.094v16.724h-33.78c-12.734 0-23.094 10.36-23.094 23.094s10.36 23.093 23.094 23.093zm56.874-71.005c4.463 0 8.094 3.631 8.094 8.094v39.817c0 4.463-3.631 8.094-8.094 8.094s-8.094-3.631-8.094-8.094v-39.817c0-4.463 3.631-8.094 8.094-8.094zm-56.874 39.818h33.78v8.094c0 2.847.521 5.573 1.467 8.094H199.35c-4.463 0-8.094-3.631-8.094-8.094s3.632-8.094 8.095-8.094zM121.266 41.82H40.703c-4.143 0-7.5 3.358-7.5 7.5s3.357 7.5 7.5 7.5h80.563c4.143 0 7.5-3.358 7.5-7.5s-3.357-7.5-7.5-7.5zM87.797 71.001H40.703c-4.143 0-7.5 3.358-7.5 7.5s3.357 7.5 7.5 7.5h47.095a7.5 7.5 0 1 0-.001-15z"></path>
    <path d="M509.895 57.698c-1.323-13.519-12.113-23.972-25.663-24.854a834.629 834.629 0 0 0-106.799 0c-13.544.882-24.334 11.335-25.656 24.854a384.116 384.116 0 0 0 0 74.701 27.496 27.496 0 0 0 10.909 19.404l-15.282 11.449c-23.471-23.154-55.682-37.47-91.178-37.47-34.528 0-65.949 13.544-89.24 35.593l-39.988-34.848c2.462-.136 4.928-.257 7.386-.415 13.542-.871 24.333-11.32 25.658-24.846a383.736 383.736 0 0 0 0-74.71C158.717 13.03 147.926 2.581 134.384 1.71a834.644 834.644 0 0 0-106.8 0C14.042 2.581 3.251 13.03 1.926 26.556a383.726 383.726 0 0 0 0 74.709c1.324 13.526 12.115 23.975 25.658 24.846a832.387 832.387 0 0 0 53.4 1.71c8.086 0 16.171-.133 24.246-.367l51.466 44.85c-18.948 22.58-30.377 51.67-30.377 83.384 0 32.965 12.349 63.096 32.656 86.026l-31.032 28.65a940.511 940.511 0 0 0-97.622 1.18c-14.801.948-26.591 12.368-28.034 27.152a431.516 431.516 0 0 0-.001 84.042c1.444 14.773 13.231 26.193 28.033 27.155 19.958 1.285 40.053 1.927 60.149 1.927s40.193-.643 60.148-1.927c14.79-.961 26.581-12.379 28.039-27.16a438.454 438.454 0 0 0 2.055-41.534 7.5 7.5 0 0 0-7.489-7.511h-.011a7.5 7.5 0 0 0-7.5 7.489 423.552 423.552 0 0 1-1.983 40.095c-.732 7.428-6.655 13.169-14.078 13.652a924.94 924.94 0 0 1-118.362 0c-7.428-.483-13.346-6.221-14.072-13.647a416.334 416.334 0 0 1 .001-81.119c.726-7.43 6.641-13.168 14.066-13.645a924.866 924.866 0 0 1 118.369 0c7.424.476 13.344 6.216 14.075 13.637.382 3.954.705 7.854.962 11.591.283 4.133 3.862 7.258 7.996 6.969a7.5 7.5 0 0 0 6.969-7.996 438.478 438.478 0 0 0-.998-12.022c-1.457-14.784-13.251-26.201-28.043-27.149-.573-.037-1.148-.068-1.721-.104l20.662-19.076c23.009 20.649 53.398 33.231 86.674 33.231 30.482 0 58.542-10.558 80.726-28.203l26.012 26.75c-4.392 3.589-7.357 8.859-7.949 14.902a278.701 278.701 0 0 0 0 54.278c1.056 10.778 9.655 19.105 20.449 19.799a602.177 602.177 0 0 0 38.639 1.237c12.909 0 25.819-.412 38.639-1.237 10.794-.694 19.394-9.021 20.449-19.799a278.701 278.701 0 0 0 0-54.278c-1.056-10.779-9.656-19.106-20.449-19.799-24.484-1.576-49.294-1.628-73.806-.195l-30.786-31.658c23.458-23.514 37.983-55.944 37.983-91.704 0-30.728-10.731-58.991-28.632-81.258l22.719-17.021a834.253 834.253 0 0 0 50.681 1.559c4.143 0 7.5-3.358 7.5-7.5s-3.357-7.5-7.5-7.5c-17.521 0-35.183-.567-52.493-1.685-6.177-.402-11.099-5.173-11.703-11.347a369.17 369.17 0 0 1 .001-71.778c.604-6.172 5.525-10.944 11.696-11.346a819.347 819.347 0 0 1 104.861 0c6.177.402 11.099 5.174 11.703 11.347a369.012 369.012 0 0 1-.001 71.778c-.604 6.173-5.525 10.944-11.695 11.346-7.759.498-15.401.881-22.714 1.139a7.498 7.498 0 0 0-7.23 7.76c.146 4.14 3.659 7.376 7.76 7.23a806.694 806.694 0 0 0 23.152-1.161c13.543-.881 24.334-11.334 25.656-24.854a384.085 384.085 0 0 0 0-74.698zM28.547 111.142c-6.171-.397-11.089-5.166-11.693-11.34a369.005 369.005 0 0 1 0-71.785c.604-6.173 5.522-10.942 11.693-11.339A817.692 817.692 0 0 1 80.984 15c17.521 0 35.04.56 52.438 1.679 6.17.397 11.088 5.166 11.693 11.34a368.995 368.995 0 0 1 0 71.784c-.605 6.174-5.523 10.943-11.693 11.34a819.748 819.748 0 0 1-104.875-.001zM160.71 319.495l6.677-3.855a7.5 7.5 0 0 0-7.5-12.99l-6.696 3.866a114.035 114.035 0 0 1-11.621-43.326h18.139c4.143 0 7.5-3.358 7.5-7.5s-3.357-7.5-7.5-7.5H141.57a114.04 114.04 0 0 1 11.622-43.327l6.696 3.866a7.497 7.497 0 0 0 10.245-2.745 7.5 7.5 0 0 0-2.745-10.245l-6.677-3.855a115.864 115.864 0 0 1 31.709-31.71l3.855 6.678a7.498 7.498 0 0 0 10.245 2.745 7.5 7.5 0 0 0 2.745-10.245l-3.866-6.696a114.059 114.059 0 0 1 43.327-11.622v18.14c0 4.142 3.357 7.5 7.5 7.5s7.5-3.358 7.5-7.5v-18.14a114.053 114.053 0 0 1 43.326 11.621l-3.866 6.696a7.5 7.5 0 0 0 12.99 7.5l3.856-6.678a115.867 115.867 0 0 1 31.71 31.71l-6.678 3.855a7.5 7.5 0 0 0 7.5 12.99l6.696-3.866a114.059 114.059 0 0 1 11.622 43.327h-18.14c-4.143 0-7.5 3.358-7.5 7.5s3.357 7.5 7.5 7.5h18.14a114.045 114.045 0 0 1-11.622 43.327l-6.697-3.866a7.5 7.5 0 0 0-7.5 12.99l6.678 3.855a115.84 115.84 0 0 1-31.71 31.71l-3.856-6.678a7.5 7.5 0 0 0-12.99 7.5l3.866 6.696a114.035 114.035 0 0 1-43.326 11.621v-18.14c0-4.142-3.357-7.5-7.5-7.5s-7.5 3.358-7.5 7.5v18.14a114.059 114.059 0 0 1-43.327-11.622l3.866-6.696a7.5 7.5 0 0 0-12.99-7.5l-3.856 6.678a115.856 115.856 0 0 1-31.708-31.709zm253.393 73.513c12.588 0 25.176.402 37.676 1.206 3.422.22 6.148 2.866 6.484 6.293a263.823 263.823 0 0 1 0 51.354 6.95 6.95 0 0 1-6.484 6.292 589.477 589.477 0 0 1-75.352 0c-3.422-.22-6.148-2.867-6.484-6.293a263.823 263.823 0 0 1 0-51.354 6.95 6.95 0 0 1 6.484-6.292 587.482 587.482 0 0 1 37.676-1.206z"></path>
    <path d="M478.619 80.457a7.5 7.5 0 0 0-7.5-7.5h-80.563c-4.143 0-7.5 3.358-7.5 7.5s3.357 7.5 7.5 7.5h80.563a7.5 7.5 0 0 0 7.5-7.5zm-88.064 21.681c-4.143 0-7.5 3.358-7.5 7.5s3.357 7.5 7.5 7.5h47.096c4.143 0 7.5-3.358 7.5-7.5s-3.357-7.5-7.5-7.5zm0 316.955h47.096c4.143 0 7.5-3.358 7.5-7.5s-3.357-7.5-7.5-7.5h-47.096a7.5 7.5 0 0 0 0 15zm0 29.181h27.53c4.143 0 7.5-3.358 7.5-7.5s-3.357-7.5-7.5-7.5h-27.53a7.5 7.5 0 0 0 0 15zm-252.304-7.559a7.5 7.5 0 0 0-7.5-7.5H50.186c-4.143 0-7.5 3.358-7.5 7.5s3.357 7.5 7.5 7.5h80.564a7.5 7.5 0 0 0 7.501-7.5zm-7.5-37.684H50.186c-4.143 0-7.5 3.358-7.5 7.5s3.357 7.5 7.5 7.5h80.564c4.143 0 7.5-3.358 7.5-7.5s-3.357-7.5-7.499-7.5zm-80.565 60.368c-4.143 0-7.5 3.358-7.5 7.5s3.357 7.5 7.5 7.5h47.096c4.143 0 7.5-3.358 7.5-7.5s-3.357-7.5-7.5-7.5z"></path>
  </symbol>

    <symbol viewBox="0 0 512 512" xmlns="http://www.w3.org/2000/svg" id="student">
    <path d="M403.802 334.499l-30.049-8.823-65.376-42.701v-9.784c18.928-14.277 31.926-36.1 34.342-61.115 9.493-1.528 16.766-9.777 16.766-19.693v-26.905c0-.104-.011-.206-.016-.31v-34.082a14.787 14.787 0 0 0 6.182-12.067v-31.19l45.117-7.685c7.415-1.263 12.747-7.152 13.271-14.655.522-7.503-3.941-14.075-11.108-16.354L260.834.757a15.914 15.914 0 0 0-9.698-.001L99.037 49.135c-7.167 2.279-11.631 8.851-11.108 16.353.332 4.767 2.61 8.877 6.126 11.569v40.787h-.372c-8.565 0-15.533 6.968-15.533 15.533v20.246l-10.027 58.852c-1.733 10.179 6.107 19.496 16.457 19.496h33.949c10.327 0 18.194-9.295 16.457-19.497l-10.027-58.851v-20.246c0-8.565-6.968-15.533-15.533-15.533h-.371V81.481l37.294 6.352v31.186c0 4.927 2.389 9.331 6.153 12.043l.014 34.419v26.902c0 9.917 7.273 18.165 16.766 19.693 2.415 25.001 15.399 46.814 34.309 61.092v9.83l-65.362 42.693-30.025 8.813c-32.129 9.43-54.815 38.927-54.815 73.215v22.352c0 4.142 3.357 7.5 7.5 7.5s7.5-3.357 7.5-7.5v-22.352c0-27.024 18.109-51.213 44.04-58.823l27.976-8.212 111.766 66.413c2.269 1.348 5.271 1.42 7.662 0l111.773-66.417 27.973 8.212c25.927 7.612 44.036 31.8 44.036 58.822v72.438c0 9.291-7.559 16.85-16.85 16.85h-33.057v-32.328a7.5 7.5 0 0 0-7.5-7.5 7.5 7.5 0 0 0-7.5 7.5v32.328H133.26v-32.328c0-4.142-3.357-7.5-7.5-7.5s-7.5 3.357-7.5 7.5v32.328H85.237c-9.291 0-16.85-7.559-16.85-16.85V465.13c0-4.142-3.357-7.5-7.5-7.5s-7.5 3.357-7.5 7.5v15.021c0 17.562 14.287 31.849 31.849 31.849h341.527c17.562 0 31.849-14.287 31.849-31.849v-72.438c0-33.48-21.912-63.555-54.81-73.214zM118.528 216.971H84.58a1.69 1.69 0 0 1-1.671-1.978l9.07-53.236h19.15l9.07 53.235a1.69 1.69 0 0 1-1.671 1.979zm-8.569-83.594v13.381H93.148v-13.381c0-.295.239-.534.534-.534h15.742a.533.533 0 0 1 .535.534zm119.218 239.794l2.985 4.588-76.569-45.497 48.601-31.745c2.204 25.86 10.728 50.745 24.983 72.654zm-.052-32.375c17.653 2.508 36.087 2.51 53.75 0a143.248 143.248 0 0 1-12.624 24.196L256 386.896l-14.251-21.904a143.248 143.248 0 0 1-12.624-24.196zm53.698 32.375c14.255-21.909 22.779-46.794 24.982-72.654l48.601 31.744-76.568 45.498zm43.871-239.292h17.776v24.098h-8.823c-4.937 0-8.954-4.016-8.954-8.953v-15.145zm-223.111-70.45l152.101-48.38a.986.986 0 0 1 .603.001l152.1 48.379c.314.1.745.236.69 1.017-.055.78-.5.855-.826.911l-50.288 8.565-18.88-2.335a7.5 7.5 0 0 0-1.84 14.886l13.41 1.659v30.748l-189.305-.007V88.131l77.607-9.603a138.926 138.926 0 0 1 34.06 0l29.373 3.633a7.5 7.5 0 0 0 1.842-14.886l-29.373-3.633a153.855 153.855 0 0 0-37.743 0L154.02 73.924l-50.303-8.567c-.326-.056-.771-.131-.826-.911-.054-.781.377-.918.692-1.017zm63.928 94.548l-.01-24.098h17.805v15.146c0 4.936-4.016 8.953-8.954 8.953h-8.841zm16.507 50.244c-.386-6.107-5.462-10.891-11.555-10.891a4.954 4.954 0 0 1-4.949-4.948v-19.405h8.838c13.207 0 23.953-10.745 23.953-23.952v-15.146h111.389v15.146c0 13.207 10.746 23.952 23.953 23.952h8.838v19.405a4.954 4.954 0 0 1-4.949 4.948c-6.093 0-11.169 4.784-11.555 10.892-2.389 37.869-34.007 67.534-71.982 67.534s-69.592-29.665-71.981-67.535zM256 290.755a86.566 86.566 0 0 0 37.378-8.473v4.753c0 12.823-1.73 25.472-5.061 37.672-20.382 3.886-43.425 4.043-64.634 0a142.926 142.926 0 0 1-5.061-37.672c0-.159-.022-.314-.032-.471-.002-.031.001-.062-.001-.093v-4.204A86.577 86.577 0 0 0 256 290.755z"></path>
  </symbol>

    <symbol xmlns="http://www.w3.org/2000/svg" viewBox="0 0 64 64" id="money">
    <path d="M56.293 14.293l1.414 1.414 4-4a1 1 0 0 0 0-1.414l-4-4-1.414 1.414L58.586 10H47v2h11.586zm-6 9.414l1.414-1.414L49.414 20H61v-2H49.414l2.293-2.293-1.414-1.414-4 4a1 1 0 0 0 0 1.414z"></path>
    <path d="M60.83 31.17a3.979 3.979 0 0 0-5.41-.21A3.966 3.966 0 0 0 52 29a3.56 3.56 0 0 0-1.31.23 3.839 3.839 0 0 0-1.26.74A4 4 0 0 0 46 28a3.953 3.953 0 0 0-2 .55V12a4 4 0 0 0-4-4 3.953 3.953 0 0 0-2 .55V5a3.009 3.009 0 0 0-3-3H11a3.009 3.009 0 0 0-3 3v20H7a5 5 0 0 0-5 5v4.09l2 20.96V61a1 1 0 0 0 1 1h22a1 1 0 0 0 1-1v-5.68L31.72 50h2.15L35 53.17V61a1 1 0 0 0 1 1h20a1 1 0 0 0 1-1v-7.83l4.59-12.86a7 7 0 0 0 .41-2.35V34a4 4 0 0 0-1.17-2.83zM26 60H6v-4h20zm.48-6H5.91L4 34v-4a3.009 3.009 0 0 1 3-3h7a3 3 0 1 1 0 6H9a1 1 0 0 0-1 1v13a3.009 3.009 0 0 0 3 3h18.28zM11 48a1 1 0 0 1-1-1v-3h18v-2H10v-7h4a5 5 0 0 0 0-10h-4V5a1 1 0 0 1 1-1h24a1 1 0 0 1 1 1v20.56a3.927 3.927 0 0 0-2.01-.56A4 4 0 0 0 30 28.99v8.97a7.1 7.1 0 0 0 .41 2.36L33.15 48zm29 12h-3v-6h3zm5 0h-3v-6h3zm5 0h-3v-6h3zm5 0h-3v-6h3zm5-22.04a5.073 5.073 0 0 1-.29 1.68L55.3 52H36.7l-4.41-12.35a5.176 5.176 0 0 1-.29-1.69v-8.97a2 2 0 0 1 4 .01v8h2V12a2.015 2.015 0 0 1 2-2 2.006 2.006 0 0 1 2 2v25h2v-5a2.015 2.015 0 0 1 2-2 2.006 2.006 0 0 1 2 2v5h2v-4a1.983 1.983 0 0 1 .59-1.41 1.8 1.8 0 0 1 .77-.48A1.868 1.868 0 0 1 52 31a2.006 2.006 0 0 1 2 2v5h2v-4a2.006 2.006 0 0 1 2-2 2.015 2.015 0 0 1 2 2z"></path>
    <path d="M23 6a10 10 0 1 0 10 10A10.016 10.016 0 0 0 23 6zm0 18a8 8 0 1 1 8-8 8.011 8.011 0 0 1-8 8z"></path>
    <path d="M26 18a3.01 3.01 0 0 1-2 2.82V22h-2v-1.18A3.01 3.01 0 0 1 20 18h2a1 1 0 1 0 1-1 3 3 0 0 1-1-5.82V10h2v1.18A3.01 3.01 0 0 1 26 14h-2a1 1 0 1 0-1 1 3.009 3.009 0 0 1 3 3z"></path>
  </symbol>

   <symbol viewBox="0 0 24 24" xmlns="http://www.w3.org/2000/svg" id="search-job">
    <path d="M10.38 21H2.5A2.503 2.503 0 0 1 0 18.5v-16C0 1.121 1.122 0 2.5 0h12C15.878 0 17 1.121 17 2.5v7.03a.5.5 0 0 1-1 0V2.5c0-.827-.673-1.5-1.5-1.5h-12C1.673 1 1 1.673 1 2.5v16c0 .827.673 1.5 1.5 1.5h7.88a.5.5 0 0 1 0 1z"></path>
    <path d="M13.5 9h-10a.5.5 0 0 1 0-1h10a.5.5 0 0 1 0 1zm-4 4h-6a.5.5 0 0 1 0-1h6a.5.5 0 0 1 0 1zm-1-8h-5a.5.5 0 0 1 0-1h5a.5.5 0 0 1 0 1zM17 22c-2.757 0-5-2.243-5-5s2.243-5 5-5 5 2.243 5 5-2.243 5-5 5zm0-9c-2.206 0-4 1.794-4 4s1.794 4 4 4 4-1.794 4-4-1.794-4-4-4z"></path>
    <path d="M23.5 24a.502.502 0 0 1-.354-.146l-3.318-3.318a.5.5 0 0 1 .707-.707l3.318 3.318A.5.5 0 0 1 23.5 24z"></path>
  </symbol>

    <symbol viewBox="0 -16 512 511" xmlns="http://www.w3.org/2000/svg" id="select">
    <path d="M242.844 410.285l-21.848-27.094-35.266 28.442 54.223 67.23 86.371-90.332-32.742-31.308zm62.273-21.277l-64.207 67.148-34.086-42.261 11.91-9.61 23.153 28.707 52.168-54.558zM107.965 88.555l11.82-11.82v-33.02C119.785 19.887 100.398.5 76.57.5 52.742.5 33.355 19.887 33.355 43.715v33.02l11.82 11.82H19.099L0 107.652v101.79l15.387 15.386h15.062v117.805h38.903l7.218-7.219 7.22 7.219h38.901V224.828h15.063l15.387-15.387V107.652l-19.102-19.097zm-23.121 85.199l-6.27 7.762H74.56l-6.27-7.762 5.356-70.2h5.843zM48.355 43.714c0-15.558 12.657-28.214 28.215-28.214 15.559 0 28.215 12.656 28.215 28.215V70.52L86.75 88.555H66.39L48.356 70.52zm89.786 159.516l-6.602 6.598h-8.848v-74.445h-15v192.254H90.004l-5.91-5.91V219.285H69.047v102.438l-5.91 5.91H45.449V135.379h-15v74.45h-8.851L15 203.23v-89.367l10.313-10.312h33.289l-5.72 74.996 14.509 17.965h18.351l14.512-17.965-5.719-74.996h33.293l10.313 10.312zM287.39 88.555l11.82-11.82v-33.02C299.21 19.887 279.825.5 255.997.5s-43.215 19.387-43.215 43.215v33.02l11.82 11.82h-26.078l-19.097 19.097v101.79l15.387 15.386h15.062v117.805h38.898l7.223-7.219 7.223 7.219h38.898V224.828h15.063l15.386-15.387V107.652L313.47 88.551h-26.08zm-23.12 85.199l-6.266 7.762h-4.02l-6.27-7.762 5.356-70.203h5.844zm-36.49-130.04c0-15.558 12.657-28.214 28.215-28.214s28.215 12.656 28.215 28.215V70.52l-18.035 18.035h-20.36L227.781 70.52zm89.785 159.516l-6.597 6.598h-8.852v-74.445h-15v192.254H269.43l-5.91-5.91V219.285h-15.047v102.438l-5.91 5.91h-17.688V135.379h-15v74.45h-8.852l-6.597-6.599v-89.367l10.312-10.312h33.29l-5.72 74.996 14.508 17.969h18.356l14.508-17.97-5.72-74.991h33.294l10.312 10.308zM492.902 88.555h-26.078l11.82-11.82v-33.02C478.645 19.887 459.259.5 435.43.5s-43.215 19.387-43.215 43.215v33.02l11.82 11.82h-26.078l-19.098 19.097v101.79l15.387 15.386h15.063v117.805h38.902l7.219-7.219 7.222 7.219h38.899V224.828h15.062L512 209.441V107.652zm-49.199 85.199l-6.265 7.762h-4.02l-6.27-7.762 5.356-70.2h5.844zm-36.488-130.04c0-15.558 12.656-28.214 28.215-28.214 15.558 0 28.215 12.656 28.215 28.215V70.52l-18.036 18.035H425.25L407.219 70.52V43.715zM497 203.23l-6.598 6.598h-8.851v-74.445h-15v192.254h-17.688l-5.91-5.91V219.285h-15.047v102.438l-5.91 5.91H404.31V135.379h-15v74.45h-8.852l-6.598-6.599v-89.367l10.313-10.312h33.289l-5.719 74.996 14.508 17.965h18.352l14.507-17.965-5.714-74.996h33.293L497 113.863zM105.324 357.223L76.57 385.977l-28.754-28.754-32.023 32.02 28.758 28.753-28.758 28.754 32.023 32.023L76.57 450.02l28.754 28.753 32.02-32.02-28.754-28.757 28.754-28.754zm10.809 89.53l-10.809 10.81-28.754-28.758-28.754 28.757-10.808-10.808L65.762 418l-28.754-28.754 10.808-10.809 28.754 28.754 28.754-28.753 10.809 10.808L87.379 418zm348.051-89.53l-28.754 28.754-28.754-28.754-32.02 32.02 28.754 28.753-28.754 28.754 32.02 32.023 28.754-28.757 28.754 28.757 32.023-32.023-28.758-28.754 28.758-28.754zm10.808 89.53l-10.808 10.806-28.754-28.754-28.754 28.754-10.809-10.809 28.754-28.754-28.754-28.754 10.809-10.808 28.754 28.753 28.754-28.753 10.808 10.808-28.754 28.754zm0 0"></path>
    <path d="M85.965 79.156l-10.61-10.605 7.23-7.227v-17.61a6.023 6.023 0 0 0-6.015-6.019v-15c11.586 0 21.016 9.43 21.016 21.02v23.82zm179.425 0l-10.605-10.605 7.227-7.227v-17.61c0-3.32-2.7-6.019-6.016-6.019v-15c11.59 0 21.016 9.43 21.016 21.02v23.82zm179.434 0L434.22 68.551l7.226-7.227v-17.61a6.024 6.024 0 0 0-6.015-6.019v-15c11.59 0 21.015 9.43 21.015 21.02v23.82zm0 0"></path>
  </symbol>

    <symbol xmlns="http://www.w3.org/2000/svg" viewBox="0 0 512 512" id="economic">
    <path d="M40 376h24v24a24.027 24.027 0 0 0 24 24h24v24a24.027 24.027 0 0 0 24 24h144a24.027 24.027 0 0 0 24-24v-40h184a8 8 0 0 0 8-8V256a8 8 0 0 0-8-8h-77.927l-70.188-38.993A8 8 0 0 0 336 208h-32v-48a24.027 24.027 0 0 0-24-24h-24v-24a24.027 24.027 0 0 0-24-24h-24V64a24.027 24.027 0 0 0-24-24H40a24.027 24.027 0 0 0-24 24v288a24.027 24.027 0 0 0 24 24zm-8-24v-24h8a24.027 24.027 0 0 1 24 24v8H40a8.01 8.01 0 0 1-8-8zM80 64v-8h64v8a39.79 39.79 0 0 0 8.022 24H88a24.027 24.027 0 0 0-24 24v208.022A39.79 39.79 0 0 0 40 312h-8V104h8a40.046 40.046 0 0 0 40-40zm120.022 72H136a24.027 24.027 0 0 0-24 24v208.022A39.79 39.79 0 0 0 88 360h-8V152h8a40.046 40.046 0 0 0 40-40v-8h64v8a39.79 39.79 0 0 0 8.022 24zM280 200h8v72h-34.05A56.276 56.276 0 0 0 216 248.586V208h-16v40.58a55.993 55.993 0 0 0 0 110.84V400h16v-40.593A55.877 55.877 0 0 0 253.931 336H288v72h-8a40.046 40.046 0 0 0-40 40v8h-64v-8a40.046 40.046 0 0 0-40-40h-8V200h8a40.046 40.046 0 0 0 40-40v-8h64v8a40.046 40.046 0 0 0 40 40zm-44.8 133.32a40.018 40.018 0 1 1-.026-58.628 31.987 31.987 0 0 0 .026 58.628zM128 184v-24a8.01 8.01 0 0 1 8-8h24v8a24.027 24.027 0 0 1-24 24zm-48-48v-24a8.01 8.01 0 0 1 8-8h24v8a24.027 24.027 0 0 1-24 24zm0 264v-24h8a24.027 24.027 0 0 1 24 24v8H88a8.01 8.01 0 0 1-8-8zm48 48v-24h8a24.027 24.027 0 0 1 24 24v8h-24a8.01 8.01 0 0 1-8-8zm152 8h-24v-8a24.027 24.027 0 0 1 24-24h8v24a8.01 8.01 0 0 1-8 8zm136-192h64v128h-64zm-82.073-40L400 260.707V392h-96v-40.843A56.303 56.303 0 0 0 344 368h24v-16h-24a40.191 40.191 0 0 1-32-16l-9.6-12.8a8 8 0 0 0-6.4-3.2h-48a16 16 0 0 1 0-32h104v-16h-48v-48zM288 160v24h-8a24.027 24.027 0 0 1-24-24v-8h24a8.01 8.01 0 0 1 8 8zm-48-48v24h-8a24.027 24.027 0 0 1-24-24v-8h24a8.01 8.01 0 0 1 8 8zm-48-48v24h-8a24.027 24.027 0 0 1-24-24v-8h24a8.01 8.01 0 0 1 8 8zM40 56h24v8a24.027 24.027 0 0 1-24 24h-8V64a8.01 8.01 0 0 1 8-8z"></path>
  </symbol>

  <symbol xmlns="http://www.w3.org/2000/svg" viewBox="0 0 512 512" id="marker">
    <path d="M256 0C148.477 0 61 87.477 61 195c0 69.412 21.115 97.248 122.581 231.01C201.194 449.229 221.158 475.546 244 506a15.001 15.001 0 0 0 24.001-.002c22.708-30.29 42.585-56.507 60.123-79.638C429.834 292.209 451 264.292 451 195 451 87.477 363.523 0 256 0zm48.219 408.235c-14.404 18.998-30.383 40.074-48.222 63.789-17.961-23.867-34.031-45.052-48.515-64.146C108.784 277.766 91 254.321 91 195c0-90.981 74.019-165 165-165s165 74.019 165 165c0 59.205-17.83 82.722-116.781 213.235z"></path>
    <path d="M256 90c-57.897 0-105 47.103-105 105s47.103 105 105 105 105-47.103 105-105S313.897 90 256 90zm0 180c-41.355 0-75-33.645-75-75s33.645-75 75-75 75 33.645 75 75-33.645 75-75 75z"></path>
  </symbol>

    <symbol xmlns="http://www.w3.org/2000/svg" viewBox="0 0 24 24" fill="none" stroke="currentColor" stroke-width="2" stroke-linecap="round" stroke-linejoin="round" id="help-circle">
    <circle cx="12" cy="12" r="10"></circle>
    <path d="M9.09 9a3 3 0 0 1 5.83 1c0 2-3 3-3 3m.08 4h.01"></path>
  </symbol>

<symbol viewBox="0 -52 512 512" xmlns="http://www.w3.org/2000/svg" id="category">
    <path d="M0 113.293h113.293V0H0zm30.004-83.29h53.289v53.29h-53.29zM149.297 0v113.293H512V0zm332.7 83.293H179.3v-53.29h302.695zM0 260.3h113.293V147.009H0zm30.004-83.292h53.289v53.289h-53.29zM149.297 260.3H512V147.009H149.297zm30.004-83.292h302.695v53.289H179.301zM0 407.309h113.293V294.012H0zm30.004-83.293h53.289v53.289h-53.29zm119.293 83.293H512V294.012H149.297zm30.004-83.293h302.695v53.289H179.301zm0 0"></path>
  </symbol>

  <svg xmlns="http://www.w3.org/2000/svg"  viewBox="0 0 24 24" id="money-single"><path d="M12.164 7.165c-1.15.191-1.702 1.233-1.231 2.328.498 1.155 1.921 1.895 3.094 1.603 1.039-.257 1.519-1.252 1.069-2.295-.471-1.095-1.784-1.827-2.932-1.636zm1.484 2.998l.104.229-.219.045-.097-.219c-.226.041-.482.035-.719-.027l-.065-.387c.195.03.438.058.623.02l.125-.041c.221-.109.152-.387-.176-.453-.245-.054-.893-.014-1.135-.552-.136-.304-.035-.621.356-.766l-.108-.239.217-.045.104.229c.159-.026.345-.036.563-.017l.087.383c-.17-.021-.353-.041-.512-.008l-.06.016c-.309.082-.21.375.064.446.453.105.994.139 1.208.612.173.385-.028.648-.36.774zm10.312 1.057l-3.766-8.22c-6.178 4.004-13.007-.318-17.951 4.454l3.765 8.22c5.298-4.492 12.519-.238 17.952-4.454zm-2.803-1.852c-.375.521-.653 1.117-.819 1.741-3.593 1.094-7.891-.201-12.018 1.241-.667-.354-1.503-.576-2.189-.556l-1.135-2.487c.432-.525.772-1.325.918-2.094 3.399-1.226 7.652.155 12.198-1.401.521.346 1.13.597 1.73.721l1.315 2.835zm2.843 5.642c-6.857 3.941-12.399-1.424-19.5 5.99l-4.5-9.97 1.402-1.463 3.807 8.406-.002.007c7.445-5.595 11.195-1.176 18.109-4.563.294.648.565 1.332.684 1.593z"/></svg>

  <svg xmlns="http://www.w3.org/2000/svg" viewBox="0 0 24 24" id="nominee"><path d="M10.119 16.064c2.293-.53 4.427-.994 3.394-2.946-3.147-5.941-.835-9.118 2.488-9.118 3.388 0 5.643 3.299 2.488 9.119-1.065 1.964 1.149 2.427 3.393 2.946 1.985.458 2.118 1.428 2.118 3.107l-.003.828h-1.329c0-2.089.083-2.367-1.226-2.669-1.901-.438-3.695-.852-4.351-2.304-.239-.53-.395-1.402.226-2.543 1.372-2.532 1.719-4.726.949-6.017-.902-1.517-3.617-1.509-4.512-.022-.768 1.273-.426 3.479.936 6.05.607 1.146.447 2.016.206 2.543-.66 1.445-2.472 1.863-4.39 2.305-1.252.29-1.172.588-1.172 2.657h-1.331c0-2.196-.176-3.406 2.116-3.936zm-10.117 3.936h1.329c0-1.918-.186-1.385 1.824-1.973 1.014-.295 1.91-.723 2.316-1.612.212-.463.355-1.22-.162-2.197-.952-1.798-1.219-3.374-.712-4.215.547-.909 2.27-.908 2.819.015.935 1.567-.793 3.982-1.02 4.982h1.396c.44-1 1.206-2.208 1.206-3.9 0-2.01-1.312-3.1-2.998-3.1-2.493 0-4.227 2.383-1.866 6.839.774 1.464-.826 1.812-2.545 2.209-1.49.345-1.589 1.072-1.589 2.334l.002.618z"/></svg>

  <svg xmlns="http://www.w3.org/2000/svg"  viewBox="0 0 24 24" id="task-header"><path d="M22 2v22h-20v-22h3c1.23 0 2.181-1.084 3-2h8c.82.916 1.771 2 3 2h3zm-11 1c0 .552.448 1 1 1 .553 0 1-.448 1-1s-.447-1-1-1c-.552 0-1 .448-1 1zm9 1h-4l-2 2h-3.897l-2.103-2h-4v18h16v-18zm-13 9.729l.855-.791c1 .484 1.635.852 2.76 1.654 2.113-2.399 3.511-3.616 6.106-5.231l.279.64c-2.141 1.869-3.709 3.949-5.967 7.999-1.393-1.64-2.322-2.686-4.033-4.271z"/></svg>

   <symbol viewBox="0 0 443.294 443.294" xmlns="http://www.w3.org/2000/svg" id="clock">
    <path d="M221.647 0C99.433 0 0 99.433 0 221.647s99.433 221.647 221.647 221.647 221.647-99.433 221.647-221.647S343.861 0 221.647 0zm0 415.588c-106.941 0-193.941-87-193.941-193.941s87-193.941 193.941-193.941 193.941 87 193.941 193.941-87 193.941-193.941 193.941z"></path>
    <path d="M235.5 83.118h-27.706v144.265l87.176 87.176 19.589-19.589-79.059-79.059z"></path>
  </symbol>

   <symbol viewBox="0 0 512 512" xmlns="http://www.w3.org/2000/svg" id="task">
    <path d="M175.5 145h-80c-8.284 0-15 6.716-15 15s6.716 15 15 15h80c8.284 0 15-6.716 15-15s-6.716-15-15-15zm0 80h-80c-8.284 0-15 6.716-15 15s6.716 15 15 15h80c8.284 0 15-6.716 15-15s-6.716-15-15-15zm0 80h-80c-8.284 0-15 6.716-15 15s6.716 15 15 15h80c8.284 0 15-6.716 15-15s-6.716-15-15-15z"></path>
    <path d="M390.5 274.928V137.98c0-19.77-7.623-38.421-21.465-52.527l-60.862-62.939-.088-.091C294.072 8.173 274.573 0 254.59 0H61.5c-24.813 0-45 20.187-45 45v389c0 24.813 20.187 45 45 45h231.833c21.376 20.433 50.331 33 82.167 33 66.168 0 120-53.383 120-119 0-60.58-45.885-110.729-105-118.072zM46.5 434V45c0-8.271 6.729-15 15-15h193.09c11.974 0 23.658 4.891 32.066 13.418l60.851 62.929.086.089c8.323 8.467 12.907 19.669 12.907 31.545v136.962c-58.562 7.398-104 57.521-104 118.058 0 20.233 5.082 39.3 14.027 56H61.5c-8.271-.001-15-6.73-15-15.001zm329 48c-49.075 0-89-39.925-89-89s39.925-89 89-89c49.626 0 90 39.925 90 89s-40.374 89-90 89z"></path>
    <path d="M410.103 357.477c-6.363-5.301-15.822-4.442-21.126 1.921l-25.317 30.381-5.743-11.486c-3.705-7.41-12.715-10.415-20.125-6.708-7.41 3.704-10.413 12.715-6.708 20.124l16 32a15.001 15.001 0 0 0 24.94 2.895l40-48c5.303-6.366 4.443-15.824-1.921-21.127zM255.5 175h16c8.284 0 15-6.716 15-15s-6.716-15-15-15h-16c-8.284 0-15 6.716-15 15s6.716 15 15 15zm31 65c0-8.284-6.716-15-15-15h-16c-8.284 0-15 6.716-15 15s6.716 15 15 15h16c8.284 0 15-6.716 15-15z"></path>
  </symbol>

  <symbol xmlns="http://www.w3.org/2000/svg" viewBox="0 0 512 512" id="portfolio">
    <path d="M414.007 148.75c5.522 0 10-4.477 10-10V30c0-16.542-13.458-30-30-30h-364c-16.542 0-30 13.458-30 30v452c0 16.542 13.458 30 30 30h364c16.542 0 30-13.458 30-30v-73.672c0-5.523-4.478-10-10-10s-10 4.477-10 10V482c0 5.514-4.486 10-10 10h-364c-5.514 0-10-4.486-10-10V30c0-5.514 4.486-10 10-10h364c5.514 0 10 4.486 10 10v108.75c0 5.523 4.478 10 10 10z"></path>
    <path d="M212.007 54c-50.729 0-92 41.271-92 92 0 26.317 11.11 50.085 28.882 66.869.333.356.687.693 1.074 1 16.371 14.979 38.158 24.13 62.043 24.13 23.885 0 45.672-9.152 62.043-24.13a9.993 9.993 0 0 0 1.074-1c17.774-16.784 28.884-40.552 28.884-66.869 0-50.729-41.271-92-92-92zm0 164c-16.329 0-31.399-5.472-43.491-14.668 8.789-15.585 25.19-25.332 43.491-25.332s34.702 9.747 43.491 25.332C243.405 212.528 228.336 218 212.007 218zm-16-76v-6.5c0-8.822 7.178-16 16-16s16 7.178 16 16v6.5c0 8.822-7.178 16-16 16s-16-7.178-16-16zm73.94 46.683a69.375 69.375 0 0 0-29.463-24.697c4.71-6.087 7.523-13.712 7.523-21.986v-6.5c0-19.851-16.149-36-36-36s-36 16.149-36 36v6.5c0 8.274 2.813 15.899 7.523 21.986a69.375 69.375 0 0 0-29.463 24.697c-8.829-11.953-14.06-26.716-14.06-42.683 0-39.701 32.299-72 72-72s72 32.299 72 72c0 15.967-5.231 30.73-14.06 42.683zM266.007 438h-54c-5.522 0-10 4.477-10 10s4.478 10 10 10h54c5.522 0 10-4.477 10-10s-4.478-10-10-10zm0-56h-142c-5.522 0-10 4.477-10 10s4.478 10 10 10h142c5.522 0 10-4.477 10-10s-4.478-10-10-10zm0-56h-142c-5.522 0-10 4.477-10 10s4.478 10 10 10h142c5.522 0 10-4.477 10-10s-4.478-10-10-10zM88.366 272.93a10.077 10.077 0 0 0-7.079-2.93c-2.631 0-5.211 1.07-7.07 2.93-1.86 1.86-2.93 4.44-2.93 7.07s1.069 5.21 2.93 7.07a10.092 10.092 0 0 0 7.07 2.93c2.64 0 5.21-1.07 7.079-2.93 1.86-1.86 2.931-4.44 2.931-7.07s-1.07-5.21-2.931-7.07zm0 56a10.095 10.095 0 0 0-7.079-2.93c-2.631 0-5.2 1.07-7.07 2.93-1.86 1.86-2.93 4.44-2.93 7.07s1.069 5.21 2.93 7.07a10.092 10.092 0 0 0 7.07 2.93c2.64 0 5.21-1.07 7.079-2.93 1.86-1.86 2.931-4.44 2.931-7.07s-1.07-5.21-2.931-7.07zm0 56a10.095 10.095 0 0 0-7.079-2.93c-2.631 0-5.2 1.07-7.07 2.93-1.86 1.86-2.93 4.44-2.93 7.07s1.069 5.21 2.93 7.07a10.072 10.072 0 0 0 7.07 2.93c2.64 0 5.22-1.07 7.079-2.93 1.86-1.86 2.931-4.44 2.931-7.07s-1.07-5.21-2.931-7.07zM266.007 270h-142c-5.522 0-10 4.477-10 10s4.478 10 10 10h142c5.522 0 10-4.477 10-10s-4.478-10-10-10zm224.995-139.68c-9.715-5.609-21.033-7.099-31.871-4.196-10.836 2.904-19.894 9.854-25.502 19.569L307.787 363.656a10.016 10.016 0 0 0-1.278 3.891l-8.858 79.344a10.004 10.004 0 0 0 9.937 11.11 9.99 9.99 0 0 0 5.931-1.948l64.284-47.344a9.983 9.983 0 0 0 2.73-3.052l125.841-217.963c11.58-20.056 4.684-45.794-15.372-57.374zM320.063 426.394l4.626-41.432 28.942 16.71-33.568 24.722zm48.15-39.398l-38.105-22 100.985-174.91 38.105 22-100.985 174.91zm120.841-209.303l-9.857 17.073-38.105-22 9.857-17.073a21.855 21.855 0 0 1 13.358-10.25 21.85 21.85 0 0 1 16.694 2.198 21.855 21.855 0 0 1 10.25 13.358 21.856 21.856 0 0 1-2.197 16.694z"></path>
  </symbol>

   <symbol xmlns="http://www.w3.org/2000/svg" viewBox="0 0 480 480" id="about">
    <path d="M240 0C107.664 0 0 107.664 0 240c0 57.96 20.656 111.184 54.992 152.704.088.12.096.272.192.384 24.792 29.896 55.928 52.816 90.624 67.624.4.168.792.352 1.192.52 2.808 1.184 5.648 2.28 8.496 3.352 1.12.424 2.24.856 3.376 1.264 2.456.88 4.928 1.712 7.416 2.512 1.592.512 3.184 1.016 4.792 1.496 2.2.656 4.408 1.288 6.632 1.888 1.952.528 3.92 1.016 5.888 1.488 1.992.48 3.992.96 6 1.384 2.24.48 4.504.904 6.776 1.32 1.824.336 3.64.688 5.48.984 2.52.408 5.056.728 7.6 1.056 1.64.208 3.272.448 4.92.624 2.88.304 5.784.52 8.696.72 1.352.096 2.696.24 4.056.312 4.248.24 8.544.368 12.872.368s8.624-.128 12.888-.352c1.36-.072 2.704-.216 4.056-.312 2.912-.208 5.816-.416 8.696-.72 1.648-.176 3.28-.416 4.92-.624 2.544-.328 5.08-.648 7.6-1.056 1.832-.296 3.656-.648 5.48-.984 2.264-.416 4.528-.84 6.776-1.32 2.008-.432 4-.904 6-1.384 1.968-.48 3.936-.968 5.888-1.488a232.661 232.661 0 0 0 11.424-3.384c2.488-.8 4.96-1.632 7.416-2.512 1.128-.408 2.248-.84 3.376-1.264a243.168 243.168 0 0 0 8.496-3.352c.4-.168.792-.352 1.192-.52a239.997 239.997 0 0 0 90.624-67.624c.096-.112.104-.272.192-.384C459.344 351.184 480 297.96 480 240 480 107.664 372.336 0 240 0zm97.256 441.76c-.12.056-.232.12-.352.176-2.856 1.376-5.76 2.672-8.688 3.936-.664.28-1.32.568-1.984.848a217.023 217.023 0 0 1-7.76 3.064 159.85 159.85 0 0 1-3.272 1.192 230.572 230.572 0 0 1-6.976 2.368c-1.456.464-2.92.904-4.384 1.336a202.08 202.08 0 0 1-6.28 1.784c-1.776.472-3.568.904-5.36 1.328-1.88.448-3.752.904-5.648 1.304-2.072.44-4.16.816-6.24 1.192-1.688.312-3.368.64-5.072.912-2.344.368-4.712.664-7.072.96-1.496.192-2.984.416-4.496.576-2.696.288-5.416.472-8.128.664-1.208.08-2.408.216-3.632.28-3.96.208-7.928.32-11.912.32s-7.952-.112-11.904-.32c-1.216-.064-2.416-.192-3.632-.28-2.72-.184-5.432-.376-8.128-.664-1.512-.16-3-.384-4.496-.576-2.36-.296-4.728-.592-7.072-.96-1.704-.272-3.384-.6-5.072-.912-2.088-.376-4.176-.76-6.24-1.192-1.896-.4-3.776-.856-5.648-1.304-1.792-.432-3.584-.856-5.36-1.328-2.104-.56-4.2-1.168-6.28-1.784a212.543 212.543 0 0 1-4.384-1.336 223.256 223.256 0 0 1-6.976-2.368 217.023 217.023 0 0 1-11.032-4.256c-.664-.272-1.312-.56-1.976-.84a223.812 223.812 0 0 1-8.696-3.936 7.216 7.216 0 0 1-.352-.176c-27.912-13.504-52.568-32.672-72.576-55.952 15.464-56.944 59.24-102.848 115.56-121.112 1.112.68 2.272 1.288 3.416 1.928.672.376 1.336.776 2.016 1.136a99.592 99.592 0 0 0 7.272 3.512c1.896.832 3.856 1.536 5.808 2.256.384.136.768.288 1.152.424 10.848 3.84 22.456 6.04 34.6 6.04s23.752-2.2 34.592-6.04c.384-.136.768-.288 1.152-.424 1.952-.72 3.912-1.424 5.808-2.256a99.592 99.592 0 0 0 7.272-3.512c.68-.368 1.344-.76 2.016-1.136 1.144-.64 2.312-1.248 3.432-1.936 56.32 18.272 100.088 64.176 115.56 121.112-20.008 23.272-44.664 42.44-72.576 55.952zM152 176c0-48.52 39.48-88 88-88s88 39.48 88 88c0 30.864-16.008 58.024-40.128 73.736a84.742 84.742 0 0 1-9.8 5.48c-.4.192-.792.392-1.192.576-23.168 10.536-50.592 10.536-73.76 0-.4-.184-.8-.384-1.192-.576a84.083 84.083 0 0 1-9.8-5.48C168.008 234.024 152 206.864 152 176zm269.832 194.584c-18.136-53.552-59.512-96.832-112.376-117.392C330.6 234.144 344 206.64 344 176c0-57.344-46.656-104-104-104s-104 46.656-104 104c0 30.64 13.4 58.144 34.552 77.192-52.864 20.568-94.24 63.84-112.376 117.392C31.672 333.792 16 288.704 16 240 16 116.488 116.488 16 240 16s224 100.488 224 224c0 48.704-15.672 93.792-42.168 130.584z"></path>
  </symbol>

   <symbol viewBox="0 0 512 512" xmlns="http://www.w3.org/2000/svg" id="categories">
    <path d="M174.99 52.417h-55.519c-38.213 0-69.301 31.088-69.301 69.301v24.295a7.49 7.49 0 0 0 14.98 0v-24.295c0-29.953 24.368-54.321 54.321-54.321h55.519c29.952 0 54.32 24.368 54.32 54.321v84.409c0 14.022-11.408 25.431-25.431 25.431H119.47c-28.596 0-52.408-22.328-54.211-50.832a7.49 7.49 0 1 0-14.95.946c2.3 36.373 32.68 64.866 69.161 64.866h84.409c22.283 0 40.411-18.128 40.411-40.411v-84.409c.001-38.213-31.087-69.301-69.3-69.301zm217.541 0h-55.52c-38.213 0-69.301 31.088-69.301 69.301v84.409c0 22.282 18.128 40.411 40.411 40.411h84.409c38.213 0 69.301-31.088 69.301-69.301v-55.519c.002-38.213-31.087-69.301-69.3-69.301zm54.321 124.82c0 29.953-24.368 54.321-54.321 54.321h-84.409c-14.023 0-25.431-11.408-25.431-25.431v-84.409c0-29.953 24.368-54.321 54.32-54.321h55.52c29.953 0 54.321 24.368 54.321 54.321zM203.88 265.462h-84.409c-38.213 0-69.301 31.088-69.301 69.301v55.519c0 38.213 31.088 69.301 69.301 69.301h55.519c38.213 0 69.301-31.088 69.301-69.301v-84.409c0-22.282-18.128-40.411-40.411-40.411zm25.431 124.82c0 29.953-24.368 54.321-54.32 54.321h-55.519c-29.953 0-54.321-24.368-54.321-54.321v-55.519c0-29.953 24.368-54.321 54.321-54.321h84.409c14.023 0 25.431 11.408 25.431 25.431v84.409zm135.461-124.387c-13.91 0-27.337 2.895-39.909 8.603a7.49 7.49 0 0 0 6.193 13.641c10.613-4.819 21.957-7.263 33.716-7.263 45.021 0 81.648 36.627 81.648 81.648s-36.627 81.648-81.648 81.648-81.648-36.627-81.648-81.648c0-20.854 7.859-40.704 22.13-55.894a7.489 7.489 0 0 0-.33-10.587 7.489 7.489 0 0 0-10.587.33c-16.891 17.978-26.193 41.471-26.193 66.15 0 53.281 43.347 96.628 96.628 96.628s96.628-43.347 96.628-96.628-43.348-96.628-96.628-96.628z"></path>
    <path d="M343.948 395.449a7.49 7.49 0 0 0-10.369 2.168 7.49 7.49 0 0 0 2.168 10.369c8.182 5.353 13.87 7.089 20.951 7.591v6.148c0 4.137 3.353 7.49 7.49 7.49s7.49-3.353 7.49-7.49v-6.827c14.066-3.23 23.096-15.093 25.063-26.794 2.518-14.979-5.31-28-19.944-33.173a294.833 294.833 0 0 1-5.118-1.858v-28.908c3.922 1.186 6.21 3.135 6.349 3.255l1.754 1.611A7.49 7.49 0 0 0 389.917 318l-1.743-1.601c-.373-.343-6.481-5.839-16.494-7.59v-5.486a7.49 7.49 0 0 0-14.98 0v6.028c-.746.179-1.5.375-2.266.606-9.677 2.915-16.907 11.187-18.866 21.586-1.793 9.514 1.276 18.704 8.009 23.986 3.366 2.64 7.512 5.059 13.123 7.593v37.429c-4.52-.465-7.643-1.759-12.752-5.102zm27.73-26.44l.126.045c11.341 4.009 10.647 13.693 10.164 16.565-.889 5.291-4.388 10.879-10.29 13.55zM352.82 343.74c-2.281-1.789-3.276-5.489-2.534-9.425.618-3.277 2.621-7.145 6.411-9.163v21.176c-1.432-.838-2.744-1.7-3.877-2.588zM505.579 29.838c-11.805-5.563-18.184-15.78-21.457-23.372a10.688 10.688 0 0 0-19.638.001c-3.273 7.592-9.652 17.809-21.458 23.371-3.779 1.781-6.126 5.483-6.126 9.662s2.348 7.882 6.126 9.662c11.805 5.563 18.185 15.78 21.458 23.372a10.69 10.69 0 0 0 19.638 0c3.273-7.592 9.652-17.809 21.457-23.371 3.779-1.78 6.127-5.483 6.127-9.662s-2.348-7.883-6.127-9.663zm-31.276 28.991c-3.936-6.689-9.687-13.815-17.988-19.328 8.301-5.513 14.052-12.639 17.989-19.328 3.936 6.689 9.687 13.815 17.988 19.328-8.301 5.512-14.052 12.639-17.989 19.328zM68.973 462.837c-11.805-5.563-18.185-15.78-21.457-23.37a10.687 10.687 0 0 0-19.637-.001c-3.273 7.592-9.652 17.809-21.458 23.371-3.779 1.781-6.126 5.483-6.126 9.662s2.347 7.882 6.126 9.662c11.805 5.563 18.185 15.78 21.458 23.372a10.69 10.69 0 0 0 19.638 0c3.273-7.592 9.652-17.809 21.457-23.371 3.779-1.78 6.127-5.483 6.127-9.662s-2.35-7.883-6.128-9.663zm-31.276 28.99c-3.936-6.689-9.688-13.816-17.988-19.328 8.301-5.512 14.052-12.639 17.988-19.328 3.936 6.689 9.688 13.815 17.988 19.328-8.301 5.513-14.052 12.639-17.988 19.328z"></path>
  </symbol>

  <symbol viewBox="0 0 512 512" xmlns="http://www.w3.org/2000/svg" id="request">
    <path d="M367.398 231.898c0 8.286-6.714 15-15 15-8.28 0-15-6.714-15-15 0-8.28 6.72-15 15-15 8.286 0 15 6.72 15 15zM352.383 72.3c-30.45 0-55.149 24.641-55.149 55.15v.019c0 8.281 6.715 14.992 15 14.992s15-6.727 15-15.012c0-13.867 11.215-25.148 25.168-25.148 13.875 0 25.164 11.289 25.164 25.168 0 13.875-11.289 25.164-25.164 25.164-8.285 0-15 6.719-15 15v16.066c0 8.285 6.715 15 15 15 8.282 0 15-6.715 15-15v-3.137c23.153-6.55 40.164-27.875 40.164-53.093 0-30.422-24.746-55.168-55.183-55.168zM143.938 382.813c18.64-14.516 30.664-37.149 30.664-62.547 0-43.707-35.563-79.266-79.27-79.266s-79.266 35.559-79.266 79.266c0 25.398 12.024 48.03 30.66 62.546C20.423 398.462 0 428.017 0 464.868V497c0 8.285 6.715 15 15 15h160.668c8.281 0 15-6.715 15-15v-32.133c0-36.844-20.418-66.402-46.73-82.055zm-97.872-62.547c0-27.164 22.102-49.266 49.27-49.266 27.164 0 49.266 22.102 49.266 49.266 0 27.168-22.102 49.27-49.266 49.27-27.168 0-49.27-22.102-49.27-49.27zM160.668 482H30v-17.133c0-36.086 29.195-65.332 65.332-65.332 36.086 0 65.332 29.195 65.332 65.332V482zm0 0"></path>
    <path d="M448.8 0H256c-34.906 0-63.2 28.242-63.2 63.2v289.198c0 12.27 14.071 19.446 24 12l60.266-45.199h171.735C483.707 319.2 512 290.957 512 256V63.2C512 28.292 483.758 0 448.8 0zM482 256c0 18.352-14.84 33.2-33.2 33.2H272.067a15.015 15.015 0 0 0-9 3l-40.265 30.198V63.2C222.8 44.848 237.64 30 256 30h192.8c18.352 0 33.2 14.84 33.2 33.2zm0 0"></path>
  </symbol>

 <symbol xmlns="http://www.w3.org/2000/svg" viewBox="0 0 512 512" id="email">
    <path d="M485.743 85.333H26.257C11.815 85.333 0 97.148 0 111.589V400.41c0 14.44 11.815 26.257 26.257 26.257h459.487c14.44 0 26.257-11.815 26.257-26.257V111.589c-.001-14.441-11.816-26.256-26.258-26.256zm-9.853 19.691L271.104 258.626c-3.682 2.802-9.334 4.555-15.105 4.529-5.77.026-11.421-1.727-15.104-4.529L36.109 105.024H475.89zM366.5 268.761l111.59 137.847c.112.138.249.243.368.368H33.542c.118-.131.256-.23.368-.368L145.5 268.761a9.846 9.846 0 0 0-1.464-13.851c-4.227-3.419-10.424-2.771-13.844 1.457l-110.5 136.501V117.332l209.394 157.046c7.871 5.862 17.447 8.442 26.912 8.468 9.452-.02 19.036-2.6 26.912-8.468l209.394-157.046v275.534L381.807 256.367c-3.42-4.227-9.623-4.877-13.844-1.457-4.234 3.419-4.884 9.624-1.463 13.851z"></path>
  </symbol>

<symbol viewBox="0 0 24 24" xmlns="http://www.w3.org/2000/svg" id="password">
    <path d="M18.75 24H5.25A2.253 2.253 0 0 1 3 21.75v-10.5C3 10.009 4.01 9 5.25 9h13.5C19.99 9 21 10.009 21 11.25v10.5c0 1.241-1.01 2.25-2.25 2.25zM5.25 10.5a.75.75 0 0 0-.75.75v10.5c0 .414.337.75.75.75h13.5a.75.75 0 0 0 .75-.75v-10.5a.75.75 0 0 0-.75-.75z"></path>
    <path d="M17.25 10.5a.75.75 0 0 1-.75-.75V6c0-2.481-2.019-4.5-4.5-4.5S7.5 3.519 7.5 6v3.75a.75.75 0 0 1-1.5 0V6c0-3.309 2.691-6 6-6s6 2.691 6 6v3.75a.75.75 0 0 1-.75.75zM12 17c-1.103 0-2-.897-2-2s.897-2 2-2 2 .897 2 2-.897 2-2 2zm0-2.5a.5.5 0 1 0 .002 1.002A.5.5 0 0 0 12 14.5z"></path>
    <path d="M12 20a.75.75 0 0 1-.75-.75V16.5a.75.75 0 0 1 1.5 0v2.75A.75.75 0 0 1 12 20z"></path>
  </symbol>

    <symbol xmlns="http://www.w3.org/2000/svg" viewBox="0 0 512 512" id="forgot">
    <circle cx="277.937" cy="346" r="20"></circle>
    <path d="M344.937 471.999h-249c-22.056 0-40-17.944-40-40v-164c0-22.056 17.944-40 40-40h288c4.554 0 8.167.402 11.047 1.227 10.618 3.042 21.692-3.1 24.735-13.718 3.042-10.618-3.1-21.692-13.718-24.735-6.513-1.866-13.73-2.773-22.064-2.773H359.9v-70.534C359.9 52.695 306.068 0 239.9 0s-120 52.695-120 117.466V188H95.937c-44.112 0-80 35.888-80 80v164c0 44.112 35.888 80 80 80h249c11.046 0 20-8.954 20-20s-8.954-20-20-20.001zM159.9 117.466c0-42.715 35.888-77.466 80-77.466s80 34.751 80 77.466V188h-160v-70.534z"></path>
    <circle cx="202.937" cy="346" r="20"></circle>
    <path d="M496.046 331.21c-.438-38.789-32.13-70.21-71.021-70.21C385.863 261 354 292.862 354 332.025c0 11.046 8.954 20 20 20s20-8.954 20-20C394 314.918 407.918 301 425.026 301s31.025 13.918 31.025 31.025c0 .182.002.363.007.543a31.015 31.015 0 0 1-18.864 28.035c-19.541 8.345-32.168 27.618-32.168 49.101V427c0 11.046 8.954 20 20 20s20-8.954 20-20v-17.296c0-5.438 3.092-10.271 7.875-12.313a70.961 70.961 0 0 0 43.162-65.37c0-.272-.006-.542-.017-.811z"></path>
    <circle cx="424.937" cy="492" r="20"></circle>
    <circle cx="127.937" cy="346" r="20"></circle>
  </symbol>

    <symbol xmlns="http://www.w3.org/2000/svg" viewBox="0 0 512 512" id="user">
    <path d="M437.02 330.98c-27.883-27.882-61.071-48.523-97.281-61.018C378.521 243.251 404 198.548 404 148 404 66.393 337.607 0 256 0S108 66.393 108 148c0 50.548 25.479 95.251 64.262 121.962-36.21 12.495-69.398 33.136-97.281 61.018C26.629 379.333 0 443.62 0 512h40c0-119.103 96.897-216 216-216s216 96.897 216 216h40c0-68.38-26.629-132.667-74.98-181.02zM256 256c-59.551 0-108-48.448-108-108S196.449 40 256 40s108 48.448 108 108-48.449 108-108 108z"></path>
  </symbol>

   <symbol xmlns="http://www.w3.org/2000/svg" viewBox="0 0 512.011 512.011" id="down-arrow">
    <path d="M505.755 123.592c-8.341-8.341-21.824-8.341-30.165 0L256.005 343.176 36.421 123.592c-8.341-8.341-21.824-8.341-30.165 0s-8.341 21.824 0 30.165l234.667 234.667a21.275 21.275 0 0 0 15.083 6.251 21.275 21.275 0 0 0 15.083-6.251l234.667-234.667c8.34-8.341 8.34-21.824-.001-30.165z"></path>
  </symbol>

    <symbol viewBox="0 0 512 512" xmlns="http://www.w3.org/2000/svg" id="profile">
    <path d="M328 377h-80c-8.284 0-15 6.716-15 15s6.716 15 15 15h80c8.284 0 15-6.716 15-15s-6.716-15-15-15zm-80-34h56c8.284 0 15-6.716 15-15s-6.716-15-15-15h-56c-8.284 0-15 6.716-15 15s6.716 15 15 15z"></path>
    <path d="M512 160c0-65.617-53.383-119-119-119-51.962 0-96.246 33.48-112.429 80H45c-24.813 0-45 20.187-45 45v260c0 24.813 20.187 45 45 45h373c24.813 0 45-20.187 45-45V256.171c29.677-21.661 49-56.699 49-96.171zM393 71c49.075 0 89 39.925 89 89s-39.925 89-89 89-89-39.925-89-89 39.925-89 89-89zm40 355c0 8.271-6.729 15-15 15H45c-8.271 0-15-6.729-15-15V166c0-8.271 6.729-15 15-15h229.339a120.258 120.258 0 0 0-.339 9c0 65.617 53.383 119 119 119a118.46 118.46 0 0 0 40-6.924z"></path>
    <path d="M363.583 190.708a15.001 15.001 0 0 0 24.94 2.895l40-48c5.303-6.364 4.443-15.822-1.921-21.126-6.363-5.303-15.822-4.443-21.126 1.921l-25.317 30.381-5.743-11.486c-3.705-7.41-12.716-10.415-20.125-6.708-7.41 3.704-10.413 12.715-6.708 20.124zM167.088 302.647C176.918 292.706 183 279.052 183 264c0-30.327-24.673-55-55-55s-55 24.673-55 55c0 15.052 6.082 28.706 15.912 38.647C74.36 314.197 65 332.021 65 352v40c0 8.284 6.716 15 15 15h96c8.284 0 15-6.716 15-15v-40c0-19.979-9.36-37.803-23.912-49.353zM103 264c0-13.785 11.215-25 25-25s25 11.215 25 25-11.215 25-25 25-25-11.215-25-25zm58 113H95v-25c0-18.196 14.804-33 33-33s33 14.804 33 33z"></path>
  </symbol>

  <symbol viewBox="0 0 512 512" xmlns="http://www.w3.org/2000/svg" id="settings">
    <path d="M272.066 512h-32.133c-25.989 0-47.134-21.144-47.134-47.133v-10.871a206.698 206.698 0 0 1-32.097-13.323l-7.704 7.704c-18.659 18.682-48.548 18.134-66.665-.007l-22.711-22.71c-18.149-18.129-18.671-48.008.006-66.665l7.698-7.698A206.714 206.714 0 0 1 58.003 319.2h-10.87C21.145 319.2 0 298.056 0 272.067v-32.134C0 213.944 21.145 192.8 47.134 192.8h10.87a206.755 206.755 0 0 1 13.323-32.097L63.623 153c-18.666-18.646-18.151-48.528.006-66.665l22.713-22.712c18.159-18.184 48.041-18.638 66.664.006l7.697 7.697A206.893 206.893 0 0 1 192.8 58.003v-10.87C192.8 21.144 213.944 0 239.934 0h32.133C298.056 0 319.2 21.144 319.2 47.133v10.871a206.698 206.698 0 0 1 32.097 13.323l7.704-7.704c18.659-18.682 48.548-18.134 66.665.007l22.711 22.71c18.149 18.129 18.671 48.008-.006 66.665l-7.698 7.698a206.714 206.714 0 0 1 13.323 32.097h10.87c25.989 0 47.134 21.144 47.134 47.133v32.134c0 25.989-21.145 47.133-47.134 47.133h-10.87a206.755 206.755 0 0 1-13.323 32.097l7.704 7.704c18.666 18.646 18.151 48.528-.006 66.665l-22.713 22.712c-18.159 18.184-48.041 18.638-66.664-.006l-7.697-7.697a206.893 206.893 0 0 1-32.097 13.323v10.871c0 25.987-21.144 47.131-47.134 47.131zM165.717 409.17a176.812 176.812 0 0 0 45.831 19.025 14.999 14.999 0 0 1 11.252 14.524v22.148c0 9.447 7.687 17.133 17.134 17.133h32.133c9.447 0 17.134-7.686 17.134-17.133v-22.148a14.999 14.999 0 0 1 11.252-14.524 176.812 176.812 0 0 0 45.831-19.025 15 15 0 0 1 18.243 2.305l15.688 15.689c6.764 6.772 17.626 6.615 24.224.007l22.727-22.726c6.582-6.574 6.802-17.438.006-24.225l-15.695-15.695a15 15 0 0 1-2.305-18.242 176.78 176.78 0 0 0 19.024-45.831 15 15 0 0 1 14.524-11.251h22.147c9.447 0 17.134-7.686 17.134-17.133v-32.134c0-9.447-7.687-17.133-17.134-17.133H442.72a15 15 0 0 1-14.524-11.251 176.815 176.815 0 0 0-19.024-45.831 15 15 0 0 1 2.305-18.242l15.689-15.689c6.782-6.774 6.605-17.634.006-24.225l-22.725-22.725c-6.587-6.596-17.451-6.789-24.225-.006l-15.694 15.695a15 15 0 0 1-18.243 2.305 176.812 176.812 0 0 0-45.831-19.025 14.999 14.999 0 0 1-11.252-14.524v-22.15c0-9.447-7.687-17.133-17.134-17.133h-32.133c-9.447 0-17.134 7.686-17.134 17.133v22.148a14.999 14.999 0 0 1-11.252 14.524 176.812 176.812 0 0 0-45.831 19.025 15.002 15.002 0 0 1-18.243-2.305l-15.688-15.689c-6.764-6.772-17.627-6.615-24.224-.007l-22.727 22.726c-6.582 6.574-6.802 17.437-.006 24.225l15.695 15.695a15 15 0 0 1 2.305 18.242 176.78 176.78 0 0 0-19.024 45.831 15 15 0 0 1-14.524 11.251H47.134C37.687 222.8 30 230.486 30 239.933v32.134c0 9.447 7.687 17.133 17.134 17.133h22.147a15 15 0 0 1 14.524 11.251 176.815 176.815 0 0 0 19.024 45.831 15 15 0 0 1-2.305 18.242l-15.689 15.689c-6.782 6.774-6.605 17.634-.006 24.225l22.725 22.725c6.587 6.596 17.451 6.789 24.225.006l15.694-15.695c3.568-3.567 10.991-6.594 18.244-2.304z"></path>
    <path d="M256 367.4c-61.427 0-111.4-49.974-111.4-111.4S194.573 144.6 256 144.6 367.4 194.574 367.4 256 317.427 367.4 256 367.4zm0-192.8c-44.885 0-81.4 36.516-81.4 81.4s36.516 81.4 81.4 81.4 81.4-36.516 81.4-81.4-36.515-81.4-81.4-81.4z"></path>
  </symbol>

    <symbol viewBox="0 0 511 512" xmlns="http://www.w3.org/2000/svg" id="logout">
    <path d="M361.5 392v40c0 44.113-35.887 80-80 80h-201c-44.113 0-80-35.887-80-80V80c0-44.113 35.887-80 80-80h201c44.113 0 80 35.887 80 80v40c0 11.047-8.953 20-20 20s-20-8.953-20-20V80c0-22.055-17.945-40-40-40h-201c-22.055 0-40 17.945-40 40v352c0 22.055 17.945 40 40 40h201c22.055 0 40-17.945 40-40v-40c0-11.047 8.953-20 20-20s20 8.953 20 20zm136.355-170.355l-44.785-44.786c-7.812-7.812-20.476-7.812-28.285 0-7.812 7.809-7.812 20.473 0 28.282L456.641 237H216.5c-11.047 0-20 8.953-20 20s8.953 20 20 20h240.14l-31.855 31.86c-7.812 7.808-7.812 20.472 0 28.28a19.935 19.935 0 0 0 14.14 5.86 19.937 19.937 0 0 0 14.145-5.86l44.785-44.785c19.497-19.496 19.497-51.214 0-70.71zm0 0"></path>
  </symbol>

  <symbol viewBox="0 0 488.455 488.455" xmlns="http://www.w3.org/2000/svg" id="photo">
    <path d="M287.396 216.317c23.845 23.845 23.845 62.505 0 86.35s-62.505 23.845-86.35 0-23.845-62.505 0-86.35 62.505-23.845 86.35 0"></path>
    <path d="M427.397 91.581H385.21l-30.544-61.059H133.76l-30.515 61.089-42.127.075C27.533 91.746.193 119.115.164 152.715L0 396.86c0 33.675 27.384 61.074 61.059 61.074h366.338c33.675 0 61.059-27.384 61.059-61.059V152.639c-.001-33.674-27.385-61.058-61.059-61.058zM244.22 381.61c-67.335 0-122.118-54.783-122.118-122.118s54.783-122.118 122.118-122.118 122.118 54.783 122.118 122.118S311.555 381.61 244.22 381.61z"></path>
  </symbol>

   <symbol xmlns="http://www.w3.org/2000/svg" viewBox="0 0 469.333 469.333" id="crop">
    <path d="M341.333 298.667H384V128c0-23.573-19.093-42.667-42.667-42.667H170.667V128h170.667v170.667z"></path>
    <path d="M128 341.333V0H85.333v85.333H0V128h85.333v213.333C85.333 364.907 104.427 384 128 384h213.333v85.333H384V384h85.333v-42.667H128z"></path>
  </symbol>

    <symbol viewBox="0 0 512 512" xmlns="http://www.w3.org/2000/svg" id="download">
    <path d="M409.785 278.5L256 432.285 102.215 278.5l28.285-28.285 105.5 105.5V0h40v355.715l105.5-105.5zM512 472H0v40h512zm0 0"></path>
  </symbol>e

    <symbol xmlns="http://www.w3.org/2000/svg" viewBox="0 0 60 60" id="end-time">
    <path d="M41.857 22.096A7.063 7.063 0 0 0 45 16.222V5H15v11.222c0 2.36 1.18 4.564 3.143 5.874l9.319 6.843a1.318 1.318 0 0 1 .001 2.122l-9.319 6.843A7.061 7.061 0 0 0 15 43.778V55h30V43.778c0-2.36-1.18-4.564-3.143-5.874l-9.319-6.843a1.318 1.318 0 0 1-.001-2.122l9.32-6.843z" fill="#e6e6e6"></path>
    <path fill="#9e6c53" d="M10 55h40v4H10zm0-54h40v4H10z"></path>
    <path d="M54 58H6a1 1 0 1 0 0 2h48a1 1 0 1 0 0-2zM6 2h48a1 1 0 1 0 0-2H6a1 1 0 1 0 0 2z" fill="#8a5336"></path>
    <path d="M40.192 19.6A4.053 4.053 0 0 0 42 16.223a2.847 2.847 0 0 0-2.156-2.762L24.791 9.698C21.342 8.835 18 11.444 18 15v1.223c0 1.359.676 2.622 1.808 3.377L29 26.346v15.877c0 3.63-3.764 6.036-7.058 4.511-1.774-.821-3.922.394-3.941 2.349V55h24V43.736c-.019-1.931-1.889-3.322-3.791-2.991l-2.049.357A4.405 4.405 0 0 1 31 36.763V26.346l9.192-6.746z" fill="#ebba16"></path>
  </symbol>

    <symbol viewBox="0 0 524.235 524.235" xmlns="http://www.w3.org/2000/svg" id="info">
    <path d="M262.118 0C117.588 0 0 117.588 0 262.118s117.588 262.118 262.118 262.118 262.118-117.588 262.118-262.118S406.647 0 262.118 0zm17.05 417.639c-12.453 2.076-37.232 7.261-49.815 8.303-10.651.882-20.702-5.215-26.829-13.967a32.756 32.756 0 0 1-3.968-29.997l49.547-136.242h-51.515c-.044-28.389 21.25-49.263 48.485-57.274 12.997-3.824 37.212-9.057 49.809-8.255 7.547.48 20.702 5.215 26.829 13.967a32.756 32.756 0 0 1 3.968 29.997l-49.547 136.242h51.499c.01 28.356-20.49 52.564-48.463 57.226zm15.714-253.815c-18.096 0-32.765-14.671-32.765-32.765 0-18.096 14.669-32.765 32.765-32.765s32.765 14.669 32.765 32.765c0 18.095-14.668 32.765-32.765 32.765z"></path>
  </symbol>

  <symbol viewBox="-23 -21 682 682.667" xmlns="http://www.w3.org/2000/svg" id="whatsapp">
    <path d="M544.387 93.008C484.512 33.063 404.883.035 320.05 0 145.246 0 2.98 142.262 2.91 317.113c-.024 55.895 14.577 110.457 42.331 158.551L.25 640l168.121-44.102c46.324 25.27 98.477 38.586 151.55 38.602h.134c174.785 0 317.066-142.273 317.132-317.133.036-84.742-32.921-164.418-92.8-224.36zM320.05 580.94h-.11c-47.296-.02-93.683-12.73-134.16-36.742l-9.62-5.715-99.766 26.172 26.628-97.27-6.27-9.972c-26.386-41.969-40.32-90.476-40.296-140.281.055-145.332 118.305-263.57 263.7-263.57 70.406.023 136.59 27.476 186.355 77.3s77.156 116.051 77.133 186.485C583.582 462.69 465.34 580.94 320.05 580.94zm144.586-197.418c-7.922-3.968-46.883-23.132-54.149-25.78-7.258-2.645-12.547-3.962-17.824 3.968-5.285 7.93-20.469 25.781-25.094 31.066-4.625 5.29-9.242 5.953-17.168 1.985-7.925-3.965-33.457-12.336-63.726-39.332-23.555-21.012-39.457-46.961-44.082-54.89-4.617-7.938-.04-11.813 3.476-16.173 8.578-10.652 17.168-21.82 19.809-27.105 2.644-5.29 1.32-9.918-.664-13.883-1.977-3.965-17.824-42.969-24.426-58.84-6.437-15.445-12.965-13.36-17.832-13.601-4.617-.231-9.902-.278-15.187-.278-5.282 0-13.868 1.98-21.133 9.918-7.262 7.934-27.73 27.102-27.73 66.106s28.394 76.683 32.355 81.972c3.96 5.29 55.879 85.328 135.367 119.649 18.906 8.172 33.664 13.043 45.176 16.695 18.984 6.031 36.254 5.18 49.91 3.14 15.226-2.277 46.879-19.171 53.488-37.68 6.602-18.51 6.602-34.374 4.617-37.683-1.976-3.304-7.261-5.285-15.183-9.254zm0 0" fill-rule="evenodd"></path>
  </symbol>

    <symbol viewBox="0 0 512 512" xmlns="http://www.w3.org/2000/svg" id="change">
    <path d="M180 110c0-27.57-22.43-50-50-50s-50 22.43-50 50 22.43 50 50 50 50-22.43 50-50zm-50 30c-16.542 0-30-13.458-30-30s13.458-30 30-30 30 13.458 30 30-13.458 30-30 30z"></path>
    <path d="M130 260c72.557 0 130-59.151 130-130C260 58.318 201.683 0 130 0S0 58.318 0 130c0 70.844 57.433 130 130 130zm-49.95-31.988C81.099 201.361 103.096 180 130 180s48.901 21.361 49.95 48.012C164.57 235.862 147.423 240 130 240s-34.57-4.138-49.95-11.988zM130 20c60.654 0 110 49.346 110 110 0 33.607-15.545 65.262-41.414 85.97C192.071 184.073 163.794 160 130 160s-62.071 24.073-68.586 55.97C35.546 195.263 20 163.608 20 130 20 69.346 69.346 20 130 20zm302 342c0-27.57-22.43-50-50-50s-50 22.43-50 50 22.43 50 50 50 50-22.43 50-50zm-50 30c-16.542 0-30-13.458-30-30s13.458-30 30-30 30 13.458 30 30-13.458 30-30 30z"></path>
    <path d="M382 252c-71.683 0-130 58.318-130 130 0 70.85 57.432 130 130 130 72.556 0 130-59.151 130-130 0-71.682-58.317-130-130-130zm-49.95 228.012C333.099 453.361 355.096 432 382 432s48.901 21.361 49.95 48.012C416.57 487.862 399.423 492 382 492s-34.57-4.138-49.95-11.988zm118.536-12.042C444.071 436.073 415.794 412 382 412s-62.071 24.073-68.586 55.97C287.546 447.263 272 415.608 272 382c0-60.654 49.346-110 110-110s110 49.346 110 110c0 33.607-15.545 65.262-41.414 85.97zM236 466c-38.599 0-70-31.402-70-70v-10h10a10 10 0 0 0 8-16l-60-80a10.002 10.002 0 0 0-16 0l-60 80a9.999 9.999 0 0 0 8 16h10v10c0 49.626 40.374 90 90 90h80c5.522 0 10-4.477 10-10s-4.478-10-10-10zm-80 0c-38.599 0-70-31.402-70-70v-20c0-5.523-4.478-10-10-10l40-53.333L156 366c-5.522 0-10 4.477-10 10v20c0 28.242 13.075 53.487 33.491 70zM276 46c38.599 0 70 31.402 70 70v10h-10a10 10 0 0 0-8 16l60 80a10.002 10.002 0 0 0 16 0l60-80a9.999 9.999 0 0 0-8-16h-10v-10a91.33 91.33 0 0 0-.36-8.094c-.491-5.501-5.348-9.561-10.85-9.071-5.501.491-9.562 5.349-9.07 10.85.186 2.085.28 4.21.28 6.314v20c0 5.523 4.478 10 10 10l-40 53.333L356 146c5.522 0 10-4.477 10-10v-20c0-28.242-13.075-53.487-33.491-70H356c7.997 0 15.835 1.335 23.295 3.968 5.212 1.835 10.92-.895 12.758-6.103s-.894-10.92-6.102-12.758C376.347 27.718 366.271 26 356 26h-80c-5.522 0-10 4.477-10 10s4.478 10 10 10z"></path>
    <circle cx="419" cy="67" r="10"></circle>
  </symbol>

   <symbol xmlns="http://www.w3.org/2000/svg" viewBox="0 0 512 512" id="next">
    <path d="M508.875 248.458l-160-160c-4.167-4.167-10.917-4.167-15.083 0-4.167 4.167-4.167 10.917 0 15.083l141.792 141.792H10.667C4.771 245.333 0 250.104 0 256s4.771 10.667 10.667 10.667h464.917L333.792 408.458c-4.167 4.167-4.167 10.917 0 15.083a10.634 10.634 0 0 0 7.542 3.125c2.729 0 5.458-1.042 7.542-3.125l160-160c4.166-4.166 4.166-10.916-.001-15.083z"></path>
  </symbol>

    <symbol xmlns="http://www.w3.org/2000/svg" viewBox="0 0 352.62 352.62" id="tick">
    <path d="M337.222 22.952c-15.912-8.568-33.66 7.956-44.064 17.748-23.867 23.256-44.063 50.184-66.708 74.664-25.092 26.928-48.348 53.856-74.052 80.173-14.688 14.688-30.6 30.6-40.392 48.96-22.032-21.421-41.004-44.677-65.484-63.648C28.774 167.385-.602 157.593.01 190.029c1.224 42.229 38.556 87.517 66.096 116.28 11.628 12.24 26.928 25.092 44.676 25.704 21.42 1.224 43.452-24.48 56.304-38.556 22.645-24.48 41.005-52.021 61.812-77.112 26.928-33.048 54.468-65.485 80.784-99.145 16.524-20.808 68.544-72.217 27.54-94.248zM26.937 187.581c-.612 0-1.224 0-2.448.611-2.448-.611-4.284-1.224-6.732-2.448 1.836-1.224 4.896-.612 9.18 1.837z"></path>
  </symbol>

   <symbol viewBox="0 -1 512 512" xmlns="http://www.w3.org/2000/svg" id="address">
    <path d="M204.5 458.605v51.856l-12.54-10.129c-1.937-1.566-48.034-38.992-94.78-92.66C32.695 333.637 0 267.18 0 210.152V204.5C0 91.738 91.738 0 204.5 0S409 91.738 409 204.5v5.652c0 4.79-.254 9.653-.715 14.575l-39.992-36.485c-8.191-83.156-78.52-148.34-163.793-148.34-90.758 0-164.598 73.84-164.598 164.598v5.652c0 96.368 124.164 213.028 164.598 248.453zm122.7-28.66h59.85v-59.851H327.2zM204.5 119.707c46.754 0 84.793 38.04 84.793 84.793s-38.04 84.793-84.793 84.793-84.793-38.04-84.793-84.793 38.04-84.793 84.793-84.793zm0 39.902c-24.754 0-44.89 20.137-44.89 44.891 0 24.75 20.136 44.89 44.89 44.89 24.75 0 44.89-20.14 44.89-44.89 0-24.754-20.14-44.89-44.89-44.89zm280.61 243.223l-11.22-10.234v64.058c0 29.828-24.269 54.094-54.097 54.094H293.461c-29.828 0-54.098-24.266-54.098-54.094v-64.058l-11.218 10.234-26.891-29.477L356.625 231.61 512 373.355zm-51.122-46.637l-77.363-70.574-77.36 70.574v100.457c0 7.828 6.368 14.196 14.196 14.196h126.332c7.828 0 14.195-6.368 14.195-14.196zm0 0"></path>
  </symbol>

  <symbol xmlns="http://www.w3.org/2000/svg" viewBox="0 0 512 512" id="clock-2">
    <path d="M27.689 181h58.8v30h-58.8zm0 120h58.8v30h-58.8zM0 241h86.49v30H0zM314.245 58.245C205.028 58.245 116.49 146.783 116.49 256s88.538 197.755 197.755 197.755S512 365.217 512 256 423.462 58.245 314.245 58.245zm62.364 278.971l-83.115-56.641v-121.36h30v105.5l70.01 47.709-16.895 24.792z"></path>
  </symbol>

  <symbol xmlns="http://www.w3.org/2000/svg" viewBox="0 0 512 512" id="gender">
    <path d="M478.021 19.912C477.971 8.806 468.89-.006 458.015 0h-63.549c-11.046 0-20 8.954-20 20s8.954 20 20 20h15.274l-68.412 68.412c-21.14-15.407-47.151-24.513-75.252-24.513-57.133 0-105.641 37.614-122.077 89.376-62.102 8.789-110.025 62.287-110.025 126.776 0 63.805 46.91 116.854 108.051 126.485v21.312h-4.152c-11.046 0-20 8.954-20 20s8.954 20 20 20h4.152V492c0 11.046 8.954 20 20 20s20-8.954 20-20v-4.152h4.152c11.046 0 20-8.954 20-20s-8.954-20-20-20h-4.152v-21.312c48.229-7.597 87.598-42.211 102.077-87.811 62.102-8.789 110.025-62.287 110.025-126.776 0-28.102-9.106-54.113-24.513-75.252l68.412-68.412V83.56c0 11.046 8.954 20 20 20s20-8.954 20-20V20c-.001-.03-.005-.058-.005-.088zm-315.996 368.19c-48.552 0-88.051-39.499-88.051-88.051 0-40.251 27.148-74.279 64.095-84.738 1.574 60.752 45.673 111.101 103.563 122.337-14.128 29.795-44.498 50.452-79.607 50.452zm16.02-174.637c40.448 7.465 71.292 42.664 72.012 85.071-40.448-7.466-71.292-42.664-72.012-85.071zm111.987 83.222c-1.574-60.752-45.673-111.101-103.563-122.337 14.129-29.796 44.499-50.452 79.608-50.452 48.552 0 88.051 39.499 88.051 88.051-.001 40.251-27.149 74.279-64.096 84.738z"></path>
  </symbol>

  <symbol viewBox="0 0 60 60" xmlns="http://www.w3.org/2000/svg" id="garbage">
    <g transform="translate(0 -1)">
      <path d="M59.682 41.135l-2.766-5.516a3 3 0 0 0-1.531-1.426L47.07 30.74a2.992 2.992 0 0 0-2.817.276l-3.5 2.339-3.132-2.43a3.01 3.01 0 0 0-3.8.1l-4.048 3.5a3 3 0 0 0-1.011 2.644l.64 5.074-3.82 3.425a3 3 0 0 0-.77 3.38l3.011 7.29a3 3 0 0 0 1.777 1.69l7.647 2.689c.891.31 1.876.186 2.662-.335l3.675-2.456 5.534 2.759a3 3 0 0 0 3.245-.369l5.36-4.413a2.991 2.991 0 0 0 .587-3.983l-1.961-2.935 3.168-4.87c.578-.894.64-2.027.165-2.98zm-1.843 1.89l-3.526 5.421-3.034 4.422A1 1 0 1 0 52.928 54l2.211-3.223 1.507 2.256a1 1 0 0 1-.2 1.327l-5.359 4.413a1 1 0 0 1-1.081.123l-4.506-2.25 1.062-.709a1 1 0 0 0-1.112-1.664l-2.496 1.667-4.154 2.779c-.262.173-.59.214-.887.112l-7.647-2.689a1 1 0 0 1-.593-.562l-3.012-7.29a1 1 0 0 1 .257-1.127l2.882-2.588 1.069 5.737a1 1 0 0 0 1.967-.366l-1.391-7.463-.7-5.56a1 1 0 0 1 .337-.881l4.047-3.5a1 1 0 0 1 1.268-.034l3.689 2.863 5.531 4.69a1 1 0 0 0 1.293-1.525l-4.541-3.851 3-2a1 1 0 0 1 .94-.092l8.313 3.453a1 1 0 0 1 .511.475l2.767 5.51c.156.319.133.697-.061.994z"></path>
      <path d="M40.719 41.8a1 1 0 1 0-1.662 1.112l2.422 3.624a1 1 0 0 1-.124 1.263l-2.443 2.449a1 1 0 1 0 1.416 1.412l2.443-2.449a3.009 3.009 0 0 0 .371-3.786zm9.709 1.929l-1.295.865a3 3 0 0 0-1.228 3.288l.455 1.659a1 1 0 1 0 1.93-.529l-.455-1.659a1 1 0 0 1 .409-1.1l1.3-.866a1 1 0 1 0-1.111-1.662zM16.564 4.468a2.972 2.972 0 0 0-1.8-1.491L8.6 1.127a2.982 2.982 0 0 0-3.71 1.925L.155 17.255a3 3 0 0 0 1.984 3.823l6.167 1.85A2.983 2.983 0 0 0 12.013 21l.164-.494 11.892 8.718a4.017 4.017 0 0 0 5.188-.4 4.312 4.312 0 0 0 1.273-3.064 4.36 4.36 0 0 0-1.075-2.849l-2.836-2.982a.978.978 0 0 1-.206-.892 1.05 1.05 0 0 1 .7-.724L31.982 16a2.008 2.008 0 0 1 1.881.087l12.658 7.438a6.011 6.011 0 0 0 6.792-.479 3.566 3.566 0 0 0 .225-5.388L39.047 3.914a6.98 6.98 0 0 0-6.439-1.726l-15.72 3.741a2.96 2.96 0 0 0-.324-1.461zM8.88 21.012l-6.167-1.85a1 1 0 0 1-.661-1.274l4.735-14.2a1 1 0 0 1 1.235-.645l6.167 1.85a1 1 0 0 1 .662 1.274l-4.736 14.2a.994.994 0 0 1-1.235.645zM33.072 4.133a4.993 4.993 0 0 1 4.6 1.233l14.491 13.741c.317.292.498.702.5 1.133.001.484-.22.94-.6 1.24a4 4 0 0 1-4.527.318L34.88 14.36a4.011 4.011 0 0 0-3.75-.173l-4.8 2.288a3 3 0 0 0-1.191 4.794l2.831 2.981a2.326 2.326 0 0 1-.13 3.167 2 2 0 0 1-2.589.2l-12.409-9.1 3.465-10.394z"></path>
      <circle cx="10" cy="8" r="1"></circle>
    </g>
  </symbol>

    <symbol xmlns="http://www.w3.org/2000/svg" viewBox="0 0 512 512" id="like">
    <path d="M346 0c-5.522 0-10 4.478-10 10v46c0 5.522 4.478 10 10 10s10-4.478 10-10V10c0-5.522-4.478-10-10-10zM116 312c-5.52 0-10 4.48-10 10s4.48 10 10 10 10-4.48 10-10-4.48-10-10-10z"></path>
    <path d="M486 292c0-22.056-17.944-40-40-40h-74.652c11.557-29.603 16.235-64.447 15.333-95.464-.172-5.919-.399-9.342-.706-11.497C385.458 123.432 367.716 106 346 106c-22.056 0-40 17.944-40 40v10c0 63.246-81.214 98.781-142.504 114.019C158.862 259.425 148.284 252 136 252H36c-5.522 0-10 4.478-10 10v240c0 5.522 4.478 10 10 10h100c12.202 0 22.719-7.327 27.401-17.809a3274.4 3274.4 0 0 1 14.135 3.668C212.451 506.978 231.684 512 278.46 512H386c22.056 0 40-17.944 40-40a39.764 39.764 0 0 0-6.77-22.238C434.678 444.359 446 429.599 446 412c0-8.194-2.436-15.869-6.696-22.262C454.684 384.326 466 369.6 466 352a39.764 39.764 0 0 0-6.77-22.238C474.678 324.359 486 309.599 486 292zM146 482c0 5.514-4.486 10-10 10H46V272h90c5.514 0 10 4.486 10 10v200zm300-170h-50c-5.522 0-10 4.478-10 10s4.478 10 10 10h30c11.028 0 20 8.972 20 20 0 11.046-8.954 20-20 20h-50c-5.522 0-10 4.478-10 10s4.478 10 10 10h30c10.897 0 20 8.705 20 20 0 11.046-8.954 20-20 20h-50c-5.522 0-10 4.478-10 10s4.478 10 10 10h30c11.028 0 20 8.972 20 20s-8.972 20-20 20H278.46c-44.207 0-61.473-4.509-95.87-13.492a2882.872 2882.872 0 0 0-16.59-4.295V290.025C238.368 272.787 326 230.711 326 156v-10c0-11.028 8.972-20 20-20 11.008 0 19.979 8.958 20 19.969V146c0 4.346 5.424 57.683-16.326 106H316c-5.522 0-10 4.478-10 10s4.478 10 10 10h130c11.028 0 20 8.972 20 20 0 11.046-8.954 20-20 20z"></path>
    <path d="M116 352c-5.522 0-10 4.478-10 10v80c0 5.522 4.478 10 10 10s10-4.478 10-10v-80c0-5.522-4.478-10-10-10zm150-226h-40c-5.522 0-10 4.478-10 10s4.478 10 10 10h40c5.522 0 10-4.478 10-10s-4.478-10-10-10zm200 0h-40c-5.522 0-10 4.478-10 10s4.478 10 10 10h40c5.522 0 10-4.478 10-10s-4.478-10-10-10zm-28.079-81.921c-3.906-3.904-10.236-3.904-14.143 0l-28.279 28.279c-3.905 3.905-3.905 10.237 0 14.143 3.907 3.905 10.236 3.904 14.143 0l28.279-28.279c3.905-3.905 3.905-10.237 0-14.143zm-141.42 28.279l-28.279-28.279c-3.906-3.904-10.236-3.904-14.143 0-3.905 3.905-3.905 10.237 0 14.143l28.279 28.279c3.908 3.905 10.237 3.904 14.143 0 3.905-3.905 3.905-10.237 0-14.143z"></path>
  </symbol>

    <symbol xmlns="http://www.w3.org/2000/svg" viewBox="0 0 57.149 57.15" id="unlike">
    <path d="M13.109 35.265H3.558C1.596 35.265 0 33.416 0 31.144V4.966C0 2.695 1.596.847 3.558.847h9.551c1.962 0 3.558 1.848 3.558 4.119v26.178c0 2.272-1.596 4.121-3.558 4.121zM3.558 3.847c-.191 0-.558.436-.558 1.119v26.178c0 .684.366 1.121.558 1.121h9.551c.191 0 .558-.438.558-1.121V4.966c0-.684-.366-1.119-.558-1.119H3.558zM31.73 56.302a5.463 5.463 0 0 1-5.423-6.068 1.315 1.315 0 0 1-.001-.541c1.043-4.781-1.13-10.211-2.518-13.021-.12-.242-.237-.478-.349-.691a1.415 1.415 0 0 0-.814-.467h-.411c-.059 0-.152-.006-.224-.015a4.25 4.25 0 0 1-4.038-4.248V5.109A4.267 4.267 0 0 1 22.214.847h29.475c.13 0 .255.016.373.047a5.447 5.447 0 0 1 4.881 5.412 5.418 5.418 0 0 1-1.607 3.857 5.447 5.447 0 0 1 .109 8.018c1.049.994 1.704 2.402 1.704 3.959s-.655 2.963-1.704 3.957a5.445 5.445 0 0 1 1.704 3.959 5.464 5.464 0 0 1-5.458 5.459l-12.607-.002c3.525 10.961-2.736 18.311-3.021 18.637-.006.006-.012.012-.016.021a5.48 5.48 0 0 1-4.317 2.131zm-2.397-6.445c.026.16.026.322-.007.482a2.42 2.42 0 0 0-.055.506 2.461 2.461 0 0 0 2.459 2.457c.789 0 1.512-.373 1.984-1.023.047-.065.1-.127.156-.184.695-.855 5.824-7.646 1.674-17.5a1.494 1.494 0 0 1 .133-1.41c.277-.42.746-.672 1.25-.672h14.762a2.44 2.44 0 0 0 1.738-.719 2.448 2.448 0 0 0 .719-1.738 2.462 2.462 0 0 0-2.457-2.459 1.5 1.5 0 0 1 0-3c1.354 0 2.457-1.102 2.457-2.457s-1.103-2.459-2.457-2.459a1.5 1.5 0 0 1 0-3c1.354 0 2.457-1.104 2.457-2.459s-1.103-2.457-2.457-2.457a1.5 1.5 0 0 1-1.5-1.5c0-.799.625-1.477 1.422-1.52a2.45 2.45 0 0 0 2.331-2.439 2.448 2.448 0 0 0-2.331-2.439 1.661 1.661 0 0 1-.176-.02H22.214c-.695 0-1.262.566-1.262 1.262v26.143c0 .677.533 1.228 1.214 1.253l.122.01h.449c.063 0 .127.004.189.012a4.376 4.376 0 0 1 2.981 1.74c.045.063.086.127.122.195.143.27.294.567.448.883 1.853 3.748 3.818 9.264 2.856 14.512z"></path>
  </symbol>

   <symbol viewBox="0 -28 512.001 512" xmlns="http://www.w3.org/2000/svg" id="heart">
    <path d="M256 455.516a30.022 30.022 0 0 1-19.793-7.438c-20.684-18.086-40.625-35.082-58.219-50.074l-.09-.078c-51.582-43.957-96.125-81.918-127.117-119.313C16.137 236.81 0 197.172 0 153.871c0-42.07 14.426-80.883 40.617-109.293C67.121 15.832 103.488 0 143.031 0c29.555 0 56.621 9.344 80.446 27.77C235.5 37.07 246.398 48.453 256 61.73c9.605-13.277 20.5-24.66 32.527-33.96C312.352 9.344 339.418 0 368.973 0c39.539 0 75.91 15.832 102.414 44.578C497.578 72.988 512 111.801 512 153.871c0 43.3-16.133 82.938-50.777 124.738-30.993 37.399-75.532 75.356-127.106 119.309-17.625 15.016-37.597 32.039-58.328 50.168a30.046 30.046 0 0 1-19.789 7.43zM143.031 29.992c-31.066 0-59.605 12.399-80.367 34.914-21.07 22.856-32.676 54.45-32.676 88.965 0 36.418 13.535 68.988 43.883 105.606 29.332 35.394 72.961 72.574 123.477 115.625l.093.078c17.66 15.05 37.68 32.113 58.516 50.332 20.961-18.254 41.012-35.344 58.707-50.418 50.512-43.051 94.137-80.223 123.469-115.617 30.344-36.618 43.879-69.188 43.879-105.606 0-34.516-11.606-66.11-32.676-88.965-20.758-22.515-49.3-34.914-80.363-34.914-22.758 0-43.653 7.235-62.102 21.5-16.441 12.719-27.894 28.797-34.61 40.047-3.452 5.785-9.53 9.238-16.261 9.238s-12.809-3.453-16.262-9.238c-6.71-11.25-18.164-27.328-34.61-40.047-18.448-14.265-39.343-21.5-62.097-21.5zm0 0"></path>
  </symbol>

  <symbol xmlns="http://www.w3.org/2000/svg" viewBox="0 0 492.004 492.004" id="right-arrow">
    <path d="M484.14 226.886L306.46 49.202c-5.072-5.072-11.832-7.856-19.04-7.856-7.216 0-13.972 2.788-19.044 7.856l-16.132 16.136c-5.068 5.064-7.86 11.828-7.86 19.04 0 7.208 2.792 14.2 7.86 19.264L355.9 207.526H26.58C11.732 207.526 0 219.15 0 234.002v22.812c0 14.852 11.732 27.648 26.58 27.648h330.496L252.248 388.926c-5.068 5.072-7.86 11.652-7.86 18.864 0 7.204 2.792 13.88 7.86 18.948l16.132 16.084c5.072 5.072 11.828 7.836 19.044 7.836 7.208 0 13.968-2.8 19.04-7.872l177.68-177.68c5.084-5.088 7.88-11.88 7.86-19.1.016-7.244-2.776-14.04-7.864-19.12z"></path>
  </symbol>


</svg>